<svg width="831" height="508" viewBox="0 0 831 508" fill="none" xmlns="http://www.w3.org/2000/svg">
<path d="M102.163 7.75281C123.971 22.7977 135.827 46.7354 140.761 72.333C143.668 89.4652 142.357 106.758 141.421 124.009C140.669 137.892 140.052 151.753 139.983 165.659C139.974 167.258 139.961 168.856 139.942 170.454C139.745 188.711 141.953 208.876 155.28 222.572C163.062 229.688 170.834 232.121 181.213 231.953C182.136 231.943 183.059 231.933 184.01 231.922C192.677 231.729 200.844 230.541 209.272 228.576C210.055 228.399 210.838 228.221 211.645 228.038C226.612 224.579 241.156 219.806 255.693 214.882C272.53 209.223 287.997 205.89 305.833 206.096C308.557 206.125 311.279 206.116 314.004 206.103C331.774 206.121 348.898 208.159 365.81 213.754C367.044 214.152 368.278 214.549 369.549 214.959C394.962 223.275 419.569 234.066 441.832 248.981C444.428 250.718 447.039 252.431 449.653 254.143C473.193 269.62 493.642 287.512 514.119 306.773C516.838 309.329 519.564 311.877 522.298 314.418C528.116 319.828 533.894 325.243 539.463 330.912C541.967 333.374 544.626 335.64 547.286 337.928C549.174 339.604 550.951 341.345 552.719 343.146C555.661 346.137 558.741 348.897 561.917 351.636C564.725 354.098 567.471 356.625 570.216 359.156C574.148 362.78 578.117 366.35 582.156 369.854C584.703 372.094 587.208 374.38 589.713 376.667C593.483 380.108 597.285 383.502 601.141 386.845C603.578 388.999 605.951 391.215 608.335 393.427C613.64 398.272 619.195 402.712 624.883 407.096C627.651 409.232 630.301 411.479 632.956 413.752C640.042 419.434 648.172 423.53 656.203 427.698C656.844 428.033 657.485 428.367 658.145 428.712C673.853 436.787 690.743 442.135 708.195 444.709C709.271 444.893 710.347 445.078 711.456 445.268C740.104 448.653 768.917 443.297 792.557 426.385C801.978 418.927 809.268 410.113 815.178 399.681C815.702 398.758 816.225 397.834 816.764 396.883C821.058 388.812 823.669 380.414 826.177 371.664C828.176 372.665 828.176 372.665 828.786 374.395C831.147 388.155 830.126 403.674 825.177 416.692C824.93 417.35 824.684 418.008 824.429 418.687C820.876 427.989 816.544 435.978 810.179 443.708C809.588 444.463 808.996 445.217 808.386 445.995C787.616 471.124 753.296 482.175 721.92 485.168C664.654 489.994 609.14 469.848 560.068 441.735C540.38 430.47 520.252 420.811 499.368 412.028C495.878 410.539 492.43 408.971 488.998 407.352C487.076 406.509 487.076 406.509 484.229 406.686C478.798 416.028 478.56 425.688 481.018 436.011C483.132 443.715 485.566 451.317 488.014 458.92C498.911 493.008 498.911 493.008 495.442 503.006C494.228 504.746 494.228 504.746 492.529 505.347C489.716 505.835 487.048 505.874 484.191 505.876C482.974 505.879 481.756 505.882 480.502 505.885C479.192 505.883 477.881 505.881 476.531 505.879C475.172 505.88 473.813 505.881 472.453 505.882C469.61 505.884 466.767 505.882 463.924 505.877C460.272 505.871 456.621 505.874 452.969 505.88C450.165 505.884 447.362 505.883 444.558 505.88C442.554 505.879 440.551 505.882 438.547 505.885C437.339 505.882 436.131 505.879 434.887 505.876C433.817 505.875 432.748 505.874 431.647 505.873C429.238 505.746 429.238 505.746 428.238 504.746C427.618 501.83 427.435 500.553 428.238 497.741C430.316 495.023 432.603 492.618 434.967 490.147C438.84 486.032 441.38 482.257 441.861 476.478C441.349 466.414 433.443 458.03 427.238 450.713C426.342 449.608 425.447 448.503 424.551 447.398C421.522 443.875 418.237 440.66 414.881 437.451C408.602 431.383 403.03 425.006 398.243 417.692C398.243 417.032 398.243 416.371 398.243 415.691C397.458 415.955 396.673 416.218 395.865 416.49C387.95 419.051 380.228 420.741 371.997 421.882C370.367 422.129 370.367 422.129 368.704 422.381C353.816 424.528 338.888 424.883 323.87 424.882C321.322 424.884 318.774 424.902 316.226 424.921C303.957 424.963 291.197 424.84 279.261 421.695C279.368 430.106 279.481 438.517 279.6 446.928C279.655 450.833 279.709 454.739 279.758 458.645C279.806 462.414 279.858 466.184 279.914 469.953C279.934 471.391 279.953 472.829 279.97 474.266C279.994 476.281 280.025 478.295 280.055 480.31C280.071 481.456 280.087 482.603 280.103 483.784C280.237 486.292 280.586 488.339 281.261 490.737C281.376 492.59 281.435 494.447 281.448 496.303C281.462 497.254 281.476 498.204 281.491 499.184C281.261 501.744 281.261 501.744 279.261 504.746C276.781 505.107 276.781 505.107 273.619 505.087C272.438 505.086 271.257 505.086 270.04 505.086C268.12 505.063 268.12 505.063 266.161 505.039C264.202 505.033 264.202 505.033 262.202 505.026C258.727 505.015 255.252 504.985 251.778 504.952C248.232 504.921 244.687 504.907 241.142 504.892C234.184 504.86 227.227 504.809 220.27 504.746C221.1 497.28 221.1 497.28 223.449 494.02C223.883 493.397 224.318 492.774 224.765 492.133C225.22 491.507 225.675 490.881 226.144 490.237C232.637 481.155 235.498 474.158 234.268 462.72C231.208 445.884 223.667 430.283 215.065 415.64C212.271 410.874 212.271 410.874 212.271 408.687C192.171 427.874 180.255 461.984 171.014 487.76C168.532 494.563 166.012 500.11 159.654 504.058C158.878 504.549 158.102 505.041 157.303 505.547C154.323 507.314 152.631 507.875 149.186 507.893C147.919 507.903 147.919 507.903 146.627 507.912C145.255 507.914 145.255 507.914 143.856 507.916C142.916 507.919 141.977 507.922 141.009 507.926C139.018 507.931 137.026 507.933 135.035 507.933C131.994 507.935 128.953 507.953 125.911 507.972C123.977 507.975 122.044 507.977 120.11 507.978C119.201 507.985 118.293 507.993 117.357 508C112.89 507.984 109.344 507.868 105.288 505.746C104.696 498.288 105.664 493.685 110.287 487.735C112.371 485.524 114.541 483.408 116.723 481.294C142.901 455.903 142.531 408.162 145.331 373.896C145.388 373.199 145.445 372.502 145.504 371.784C145.658 369.895 145.807 368.005 145.956 366.116C146.286 362.607 146.755 359.139 147.281 355.654C151.437 357.152 155.079 359.214 158.779 361.595C159.687 362.178 159.687 362.178 160.613 362.773C166.258 366.489 171.364 370.731 176.437 375.186C178.997 377.423 181.605 379.566 184.275 381.67C184.275 377.21 181.42 374.967 178.589 371.789C177.996 371.12 177.403 370.451 176.792 369.762C174.964 367.718 173.122 365.688 171.277 363.659C170.77 363.087 170.263 362.516 169.741 361.927C161.477 352.669 151.925 346.054 141.618 339.222C108.581 317.274 89.7229 286.96 81.2913 248.588C80.4222 244.276 79.7778 239.953 79.2917 235.58C79.1657 234.658 79.1657 234.658 79.0373 233.716C74.5533 198.776 80.8539 161.537 88.9152 127.51C92.643 111.637 95.0008 91.0182 86.2906 76.4825C82.7029 70.8599 78.614 67.2301 72.242 65.1045C60.458 62.5897 49.6333 65.0938 38.1078 67.6778C27.7186 69.9501 16.8836 71.9186 7.04106 66.6875C3.45293 64.186 1.66831 61.5675 0.303817 57.4709C-0.474016 50.6874 0.118838 45.5634 3.52598 39.6279C8.74505 33.2569 15.2649 29.6226 22.4879 25.889C31.1152 21.3199 39.3417 16.3741 47.4223 10.8951C65.9948 -1.5929 82.5018 -4.27938 102.163 7.75281Z" fill="url(#paint0_linear_27_18)"/>
<path d="M339.236 489.578C339.535 489.002 339.829 488.813 340.181 488.326C340.531 487.838 340.823 487.648 341.176 487.162C341.529 486.675 341.821 486.484 342.174 485.997C342.884 485.185 343.531 484.667 344.195 483.774C344.885 482.496 345.56 481.594 346.245 480.309C347.485 478.593 349.411 477.498 349.818 475.883C351.229 470.285 352.112 464.507 353.167 458.293C353.138 446.842 353.138 435.895 353.138 425.044C366.267 423.141 378.792 421.326 391.72 419.436C393.621 420.024 395.118 420.688 397.227 421.624C397.227 429.187 397.424 437.077 397.186 444.949C396.651 462.643 395.708 480.323 395.381 498.02C395.307 502.032 393.984 503.615 391.187 505.083C372.46 505.436 353.807 505.436 333.304 505.436C335.016 499.821 336.149 496.106 337.266 491.956C337.91 491.002 338.571 490.484 339.236 489.578Z" fill="#3079CA"/>
<path d="M165.157 322.551C165.157 324.754 165.087 326.682 164.946 328.334C164.806 329.975 164.507 331.34 164.05 332.43C163.593 333.52 162.942 334.334 162.099 334.873C161.255 335.412 160.142 335.682 158.759 335.682C157.364 335.682 156.245 335.412 155.401 334.873C154.558 334.334 153.913 333.52 153.468 332.43C153.011 331.34 152.706 329.975 152.554 328.334C152.413 326.682 152.343 324.754 152.343 322.551C152.343 320.441 152.413 318.602 152.554 317.031C152.706 315.449 153.011 314.137 153.468 313.094C153.913 312.051 154.558 311.271 155.401 310.756C156.245 310.24 157.364 309.982 158.759 309.982C160.165 309.982 161.29 310.24 162.134 310.756C162.978 311.271 163.622 312.051 164.067 313.094C164.513 314.137 164.806 315.449 164.946 317.031C165.087 318.602 165.157 320.441 165.157 322.551ZM162.099 322.727C162.099 320.734 162.058 319.094 161.976 317.805C161.894 316.504 161.735 315.467 161.501 314.693C161.255 313.932 160.915 313.398 160.481 313.094C160.048 312.777 159.474 312.619 158.759 312.619C158.032 312.619 157.452 312.777 157.019 313.094C156.585 313.398 156.251 313.932 156.017 314.693C155.771 315.467 155.606 316.504 155.524 317.805C155.442 319.094 155.401 320.734 155.401 322.727C155.401 324.672 155.442 326.301 155.524 327.613C155.618 328.914 155.776 329.969 155.999 330.777C156.233 331.598 156.567 332.184 157.001 332.535C157.446 332.887 158.032 333.062 158.759 333.062C159.474 333.062 160.054 332.887 160.499 332.535C160.956 332.184 161.296 331.598 161.519 330.777C161.753 329.969 161.905 328.914 161.976 327.613C162.058 326.301 162.099 324.672 162.099 322.727ZM188.617 332.729V335.436H177.631V332.729H181.99V313.076L177.279 314.957V312.039L181.638 310.229H185.049V332.729H188.617ZM213.378 322.551C213.378 324.754 213.307 326.682 213.167 328.334C213.026 329.975 212.727 331.34 212.27 332.43C211.813 333.52 211.163 334.334 210.319 334.873C209.475 335.412 208.362 335.682 206.979 335.682C205.585 335.682 204.465 335.412 203.622 334.873C202.778 334.334 202.133 333.52 201.688 332.43C201.231 331.34 200.926 329.975 200.774 328.334C200.633 326.682 200.563 324.754 200.563 322.551C200.563 320.441 200.633 318.602 200.774 317.031C200.926 315.449 201.231 314.137 201.688 313.094C202.133 312.051 202.778 311.271 203.622 310.756C204.465 310.24 205.585 309.982 206.979 309.982C208.385 309.982 209.51 310.24 210.354 310.756C211.198 311.271 211.842 312.051 212.288 313.094C212.733 314.137 213.026 315.449 213.167 317.031C213.307 318.602 213.378 320.441 213.378 322.551ZM210.319 322.727C210.319 320.734 210.278 319.094 210.196 317.805C210.114 316.504 209.956 315.467 209.721 314.693C209.475 313.932 209.135 313.398 208.702 313.094C208.268 312.777 207.694 312.619 206.979 312.619C206.253 312.619 205.672 312.777 205.239 313.094C204.805 313.398 204.471 313.932 204.237 314.693C203.991 315.467 203.827 316.504 203.745 317.805C203.663 319.094 203.622 320.734 203.622 322.727C203.622 324.672 203.663 326.301 203.745 327.613C203.838 328.914 203.997 329.969 204.219 330.777C204.454 331.598 204.788 332.184 205.221 332.535C205.667 332.887 206.253 333.062 206.979 333.062C207.694 333.062 208.274 332.887 208.719 332.535C209.176 332.184 209.516 331.598 209.739 330.777C209.973 329.969 210.126 328.914 210.196 327.613C210.278 326.301 210.319 324.672 210.319 322.727ZM237.488 322.551C237.488 324.754 237.417 326.682 237.277 328.334C237.136 329.975 236.837 331.34 236.38 332.43C235.923 333.52 235.273 334.334 234.429 334.873C233.585 335.412 232.472 335.682 231.089 335.682C229.695 335.682 228.576 335.412 227.732 334.873C226.888 334.334 226.244 333.52 225.798 332.43C225.341 331.34 225.037 329.975 224.884 328.334C224.744 326.682 224.673 324.754 224.673 322.551C224.673 320.441 224.744 318.602 224.884 317.031C225.037 315.449 225.341 314.137 225.798 313.094C226.244 312.051 226.888 311.271 227.732 310.756C228.576 310.24 229.695 309.982 231.089 309.982C232.496 309.982 233.621 310.24 234.464 310.756C235.308 311.271 235.953 312.051 236.398 313.094C236.843 314.137 237.136 315.449 237.277 317.031C237.417 318.602 237.488 320.441 237.488 322.551ZM234.429 322.727C234.429 320.734 234.388 319.094 234.306 317.805C234.224 316.504 234.066 315.467 233.831 314.693C233.585 313.932 233.246 313.398 232.812 313.094C232.378 312.777 231.804 312.619 231.089 312.619C230.363 312.619 229.783 312.777 229.349 313.094C228.915 313.398 228.581 313.932 228.347 314.693C228.101 315.467 227.937 316.504 227.855 317.805C227.773 319.094 227.732 320.734 227.732 322.727C227.732 324.672 227.773 326.301 227.855 327.613C227.949 328.914 228.107 329.969 228.329 330.777C228.564 331.598 228.898 332.184 229.331 332.535C229.777 332.887 230.363 333.062 231.089 333.062C231.804 333.062 232.384 332.887 232.829 332.535C233.287 332.184 233.626 331.598 233.849 330.777C234.083 329.969 234.236 328.914 234.306 327.613C234.388 326.301 234.429 324.672 234.429 322.727ZM260.947 332.729V335.436H249.961V332.729H254.321V313.076L249.61 314.957V312.039L253.969 310.229H257.379V332.729H260.947ZM285.058 332.729V335.436H274.071V332.729H278.431V313.076L273.72 314.957V312.039L278.079 310.229H281.489V332.729H285.058ZM309.818 322.551C309.818 324.754 309.748 326.682 309.607 328.334C309.467 329.975 309.168 331.34 308.711 332.43C308.254 333.52 307.603 334.334 306.76 334.873C305.916 335.412 304.803 335.682 303.42 335.682C302.025 335.682 300.906 335.412 300.062 334.873C299.219 334.334 298.574 333.52 298.129 332.43C297.672 331.34 297.367 329.975 297.215 328.334C297.074 326.682 297.004 324.754 297.004 322.551C297.004 320.441 297.074 318.602 297.215 317.031C297.367 315.449 297.672 314.137 298.129 313.094C298.574 312.051 299.219 311.271 300.062 310.756C300.906 310.24 302.025 309.982 303.42 309.982C304.826 309.982 305.951 310.24 306.795 310.756C307.638 311.271 308.283 312.051 308.728 313.094C309.174 314.137 309.467 315.449 309.607 317.031C309.748 318.602 309.818 320.441 309.818 322.551ZM306.76 322.727C306.76 320.734 306.719 319.094 306.637 317.805C306.554 316.504 306.396 315.467 306.162 314.693C305.916 313.932 305.576 313.398 305.142 313.094C304.709 312.777 304.135 312.619 303.42 312.619C302.693 312.619 302.113 312.777 301.679 313.094C301.246 313.398 300.912 313.932 300.678 314.693C300.431 315.467 300.267 316.504 300.185 317.805C300.103 319.094 300.062 320.734 300.062 322.727C300.062 324.672 300.103 326.301 300.185 327.613C300.279 328.914 300.437 329.969 300.66 330.777C300.894 331.598 301.228 332.184 301.662 332.535C302.107 332.887 302.693 333.062 303.42 333.062C304.135 333.062 304.715 332.887 305.16 332.535C305.617 332.184 305.957 331.598 306.179 330.777C306.414 329.969 306.566 328.914 306.637 327.613C306.719 326.301 306.76 324.672 306.76 322.727ZM333.928 322.551C333.928 324.754 333.858 326.682 333.717 328.334C333.577 329.975 333.278 331.34 332.821 332.43C332.364 333.52 331.713 334.334 330.87 334.873C330.026 335.412 328.913 335.682 327.53 335.682C326.135 335.682 325.016 335.412 324.172 334.873C323.329 334.334 322.684 333.52 322.239 332.43C321.782 331.34 321.477 329.975 321.325 328.334C321.184 326.682 321.114 324.754 321.114 322.551C321.114 320.441 321.184 318.602 321.325 317.031C321.477 315.449 321.782 314.137 322.239 313.094C322.684 312.051 323.329 311.271 324.172 310.756C325.016 310.24 326.135 309.982 327.53 309.982C328.936 309.982 330.061 310.24 330.905 310.756C331.749 311.271 332.393 312.051 332.838 313.094C333.284 314.137 333.577 315.449 333.717 317.031C333.858 318.602 333.928 320.441 333.928 322.551ZM330.87 322.727C330.87 320.734 330.829 319.094 330.747 317.805C330.665 316.504 330.506 315.467 330.272 314.693C330.026 313.932 329.686 313.398 329.253 313.094C328.819 312.777 328.245 312.619 327.53 312.619C326.803 312.619 326.223 312.777 325.79 313.094C325.356 313.398 325.022 313.932 324.788 314.693C324.542 315.467 324.378 316.504 324.296 317.805C324.213 319.094 324.172 320.734 324.172 322.727C324.172 324.672 324.213 326.301 324.296 327.613C324.389 328.914 324.547 329.969 324.77 330.777C325.004 331.598 325.338 332.184 325.772 332.535C326.217 332.887 326.803 333.062 327.53 333.062C328.245 333.062 328.825 332.887 329.27 332.535C329.727 332.184 330.067 331.598 330.29 330.777C330.524 329.969 330.676 328.914 330.747 327.613C330.829 326.301 330.87 324.672 330.87 322.727ZM357.388 332.729V335.436H346.402V332.729H350.761V313.076L346.05 314.957V312.039L350.41 310.229H353.82V332.729H357.388ZM381.498 332.729V335.436H370.512V332.729H374.871V313.076L370.16 314.957V312.039L374.52 310.229H377.93V332.729H381.498ZM405.608 332.729V335.436H394.622V332.729H398.981V313.076L394.271 314.957V312.039L398.63 310.229H402.04V332.729H405.608ZM429.719 332.729V335.436H418.732V332.729H423.092V313.076L418.381 314.957V312.039L422.74 310.229H426.15V332.729H429.719ZM453.829 332.729V335.436H442.842V332.729H447.202V313.076L442.491 314.957V312.039L446.85 310.229H450.26V332.729H453.829ZM477.939 332.729V335.436H466.953V332.729H471.312V313.076L466.601 314.957V312.039L470.96 310.229H474.371V332.729H477.939ZM502.049 332.729V335.436H491.063V332.729H495.422V313.076L490.711 314.957V312.039L495.07 310.229H498.481V332.729H502.049Z" fill="#33B2B7"/>
<path d="M120.507 288.729V291.436H109.521V288.729H113.88V269.076L109.169 270.957V268.039L113.528 266.229H116.938V288.729H120.507ZM145.267 278.551C145.267 280.754 145.197 282.682 145.056 284.334C144.916 285.975 144.617 287.34 144.16 288.43C143.703 289.52 143.053 290.334 142.209 290.873C141.365 291.412 140.252 291.682 138.869 291.682C137.474 291.682 136.355 291.412 135.512 290.873C134.668 290.334 134.023 289.52 133.578 288.43C133.121 287.34 132.816 285.975 132.664 284.334C132.523 282.682 132.453 280.754 132.453 278.551C132.453 276.441 132.523 274.602 132.664 273.031C132.816 271.449 133.121 270.137 133.578 269.094C134.023 268.051 134.668 267.271 135.512 266.756C136.355 266.24 137.474 265.982 138.869 265.982C140.275 265.982 141.4 266.24 142.244 266.756C143.088 267.271 143.732 268.051 144.178 269.094C144.623 270.137 144.916 271.449 145.056 273.031C145.197 274.602 145.267 276.441 145.267 278.551ZM142.209 278.727C142.209 276.734 142.168 275.094 142.086 273.805C142.004 272.504 141.846 271.467 141.611 270.693C141.365 269.932 141.025 269.398 140.592 269.094C140.158 268.777 139.584 268.619 138.869 268.619C138.142 268.619 137.562 268.777 137.129 269.094C136.695 269.398 136.361 269.932 136.127 270.693C135.881 271.467 135.717 272.504 135.635 273.805C135.553 275.094 135.512 276.734 135.512 278.727C135.512 280.672 135.553 282.301 135.635 283.613C135.728 284.914 135.887 285.969 136.109 286.777C136.344 287.598 136.678 288.184 137.111 288.535C137.556 288.887 138.142 289.062 138.869 289.062C139.584 289.062 140.164 288.887 140.609 288.535C141.066 288.184 141.406 287.598 141.629 286.777C141.863 285.969 142.015 284.914 142.086 283.613C142.168 282.301 142.209 280.672 142.209 278.727ZM169.378 278.551C169.378 280.754 169.307 282.682 169.167 284.334C169.026 285.975 168.727 287.34 168.27 288.43C167.813 289.52 167.163 290.334 166.319 290.873C165.475 291.412 164.362 291.682 162.979 291.682C161.585 291.682 160.465 291.412 159.622 290.873C158.778 290.334 158.133 289.52 157.688 288.43C157.231 287.34 156.926 285.975 156.774 284.334C156.633 282.682 156.563 280.754 156.563 278.551C156.563 276.441 156.633 274.602 156.774 273.031C156.926 271.449 157.231 270.137 157.688 269.094C158.133 268.051 158.778 267.271 159.622 266.756C160.465 266.24 161.585 265.982 162.979 265.982C164.385 265.982 165.51 266.24 166.354 266.756C167.198 267.271 167.842 268.051 168.288 269.094C168.733 270.137 169.026 271.449 169.167 273.031C169.307 274.602 169.378 276.441 169.378 278.551ZM166.319 278.727C166.319 276.734 166.278 275.094 166.196 273.805C166.114 272.504 165.956 271.467 165.721 270.693C165.475 269.932 165.135 269.398 164.702 269.094C164.268 268.777 163.694 268.619 162.979 268.619C162.253 268.619 161.672 268.777 161.239 269.094C160.805 269.398 160.471 269.932 160.237 270.693C159.991 271.467 159.827 272.504 159.745 273.805C159.663 275.094 159.622 276.734 159.622 278.727C159.622 280.672 159.663 282.301 159.745 283.613C159.838 284.914 159.997 285.969 160.219 286.777C160.454 287.598 160.788 288.184 161.221 288.535C161.667 288.887 162.253 289.062 162.979 289.062C163.694 289.062 164.274 288.887 164.719 288.535C165.176 288.184 165.516 287.598 165.739 286.777C165.973 285.969 166.126 284.914 166.196 283.613C166.278 282.301 166.319 280.672 166.319 278.727ZM192.837 288.729V291.436H181.851V288.729H186.21V269.076L181.499 270.957V268.039L185.859 266.229H189.269V288.729H192.837ZM216.947 288.729V291.436H205.961V288.729H210.321V269.076L205.61 270.957V268.039L209.969 266.229H213.379V288.729H216.947ZM241.708 278.551C241.708 280.754 241.638 282.682 241.497 284.334C241.356 285.975 241.058 287.34 240.601 288.43C240.144 289.52 239.493 290.334 238.649 290.873C237.806 291.412 236.692 291.682 235.31 291.682C233.915 291.682 232.796 291.412 231.952 290.873C231.108 290.334 230.464 289.52 230.019 288.43C229.562 287.34 229.257 285.975 229.104 284.334C228.964 282.682 228.894 280.754 228.894 278.551C228.894 276.441 228.964 274.602 229.104 273.031C229.257 271.449 229.562 270.137 230.019 269.094C230.464 268.051 231.108 267.271 231.952 266.756C232.796 266.24 233.915 265.982 235.31 265.982C236.716 265.982 237.841 266.24 238.685 266.756C239.528 267.271 240.173 268.051 240.618 269.094C241.063 270.137 241.356 271.449 241.497 273.031C241.638 274.602 241.708 276.441 241.708 278.551ZM238.649 278.727C238.649 276.734 238.608 275.094 238.526 273.805C238.444 272.504 238.286 271.467 238.052 270.693C237.806 269.932 237.466 269.398 237.032 269.094C236.599 268.777 236.024 268.619 235.31 268.619C234.583 268.619 234.003 268.777 233.569 269.094C233.136 269.398 232.802 269.932 232.567 270.693C232.321 271.467 232.157 272.504 232.075 273.805C231.993 275.094 231.952 276.734 231.952 278.727C231.952 280.672 231.993 282.301 232.075 283.613C232.169 284.914 232.327 285.969 232.55 286.777C232.784 287.598 233.118 288.184 233.552 288.535C233.997 288.887 234.583 289.062 235.31 289.062C236.024 289.062 236.604 288.887 237.05 288.535C237.507 288.184 237.847 287.598 238.069 286.777C238.304 285.969 238.456 284.914 238.526 283.613C238.608 282.301 238.649 280.672 238.649 278.727ZM265.168 288.729V291.436H254.181V288.729H258.541V269.076L253.83 270.957V268.039L258.189 266.229H261.599V288.729H265.168ZM289.928 278.551C289.928 280.754 289.858 282.682 289.717 284.334C289.577 285.975 289.278 287.34 288.821 288.43C288.364 289.52 287.713 290.334 286.87 290.873C286.026 291.412 284.913 291.682 283.53 291.682C282.135 291.682 281.016 291.412 280.172 290.873C279.329 290.334 278.684 289.52 278.239 288.43C277.782 287.34 277.477 285.975 277.325 284.334C277.184 282.682 277.114 280.754 277.114 278.551C277.114 276.441 277.184 274.602 277.325 273.031C277.477 271.449 277.782 270.137 278.239 269.094C278.684 268.051 279.329 267.271 280.172 266.756C281.016 266.24 282.135 265.982 283.53 265.982C284.936 265.982 286.061 266.24 286.905 266.756C287.749 267.271 288.393 268.051 288.838 269.094C289.284 270.137 289.577 271.449 289.717 273.031C289.858 274.602 289.928 276.441 289.928 278.551ZM286.87 278.727C286.87 276.734 286.829 275.094 286.747 273.805C286.665 272.504 286.506 271.467 286.272 270.693C286.026 269.932 285.686 269.398 285.253 269.094C284.819 268.777 284.245 268.619 283.53 268.619C282.803 268.619 282.223 268.777 281.79 269.094C281.356 269.398 281.022 269.932 280.788 270.693C280.542 271.467 280.378 272.504 280.296 273.805C280.213 275.094 280.172 276.734 280.172 278.727C280.172 280.672 280.213 282.301 280.296 283.613C280.389 284.914 280.547 285.969 280.77 286.777C281.004 287.598 281.338 288.184 281.772 288.535C282.217 288.887 282.803 289.062 283.53 289.062C284.245 289.062 284.825 288.887 285.27 288.535C285.727 288.184 286.067 287.598 286.29 286.777C286.524 285.969 286.676 284.914 286.747 283.613C286.829 282.301 286.87 280.672 286.87 278.727ZM313.388 288.729V291.436H302.402V288.729H306.761V269.076L302.05 270.957V268.039L306.41 266.229H309.82V288.729H313.388ZM337.498 288.729V291.436H326.512V288.729H330.871V269.076L326.16 270.957V268.039L330.52 266.229H333.93V288.729H337.498ZM362.259 278.551C362.259 280.754 362.188 282.682 362.048 284.334C361.907 285.975 361.608 287.34 361.151 288.43C360.694 289.52 360.044 290.334 359.2 290.873C358.356 291.412 357.243 291.682 355.86 291.682C354.466 291.682 353.347 291.412 352.503 290.873C351.659 290.334 351.015 289.52 350.569 288.43C350.112 287.34 349.808 285.975 349.655 284.334C349.515 282.682 349.444 280.754 349.444 278.551C349.444 276.441 349.515 274.602 349.655 273.031C349.808 271.449 350.112 270.137 350.569 269.094C351.015 268.051 351.659 267.271 352.503 266.756C353.347 266.24 354.466 265.982 355.86 265.982C357.267 265.982 358.392 266.24 359.235 266.756C360.079 267.271 360.724 268.051 361.169 269.094C361.614 270.137 361.907 271.449 362.048 273.031C362.188 274.602 362.259 276.441 362.259 278.551ZM359.2 278.727C359.2 276.734 359.159 275.094 359.077 273.805C358.995 272.504 358.837 271.467 358.603 270.693C358.356 269.932 358.017 269.398 357.583 269.094C357.149 268.777 356.575 268.619 355.86 268.619C355.134 268.619 354.554 268.777 354.12 269.094C353.687 269.398 353.353 269.932 353.118 270.693C352.872 271.467 352.708 272.504 352.626 273.805C352.544 275.094 352.503 276.734 352.503 278.727C352.503 280.672 352.544 282.301 352.626 283.613C352.72 284.914 352.878 285.969 353.101 286.777C353.335 287.598 353.669 288.184 354.103 288.535C354.548 288.887 355.134 289.062 355.86 289.062C356.575 289.062 357.155 288.887 357.601 288.535C358.058 288.184 358.397 287.598 358.62 286.777C358.854 285.969 359.007 284.914 359.077 283.613C359.159 282.301 359.2 280.672 359.2 278.727ZM385.719 288.729V291.436H374.732V288.729H379.092V269.076L374.381 270.957V268.039L378.74 266.229H382.15V288.729H385.719ZM410.479 278.551C410.479 280.754 410.409 282.682 410.268 284.334C410.128 285.975 409.829 287.34 409.372 288.43C408.915 289.52 408.264 290.334 407.421 290.873C406.577 291.412 405.463 291.682 404.081 291.682C402.686 291.682 401.567 291.412 400.723 290.873C399.879 290.334 399.235 289.52 398.79 288.43C398.333 287.34 398.028 285.975 397.876 284.334C397.735 282.682 397.665 280.754 397.665 278.551C397.665 276.441 397.735 274.602 397.876 273.031C398.028 271.449 398.333 270.137 398.79 269.094C399.235 268.051 399.879 267.271 400.723 266.756C401.567 266.24 402.686 265.982 404.081 265.982C405.487 265.982 406.612 266.24 407.456 266.756C408.299 267.271 408.944 268.051 409.389 269.094C409.835 270.137 410.128 271.449 410.268 273.031C410.409 274.602 410.479 276.441 410.479 278.551ZM407.421 278.727C407.421 276.734 407.379 275.094 407.297 273.805C407.215 272.504 407.057 271.467 406.823 270.693C406.577 269.932 406.237 269.398 405.803 269.094C405.37 268.777 404.796 268.619 404.081 268.619C403.354 268.619 402.774 268.777 402.34 269.094C401.907 269.398 401.573 269.932 401.338 270.693C401.092 271.467 400.928 272.504 400.846 273.805C400.764 275.094 400.723 276.734 400.723 278.727C400.723 280.672 400.764 282.301 400.846 283.613C400.94 284.914 401.098 285.969 401.321 286.777C401.555 287.598 401.889 288.184 402.323 288.535C402.768 288.887 403.354 289.062 404.081 289.062C404.796 289.062 405.376 288.887 405.821 288.535C406.278 288.184 406.618 287.598 406.84 286.777C407.075 285.969 407.227 284.914 407.297 283.613C407.379 282.301 407.421 280.672 407.421 278.727ZM434.589 278.551C434.589 280.754 434.519 282.682 434.378 284.334C434.238 285.975 433.939 287.34 433.482 288.43C433.025 289.52 432.374 290.334 431.531 290.873C430.687 291.412 429.574 291.682 428.191 291.682C426.796 291.682 425.677 291.412 424.833 290.873C423.99 290.334 423.345 289.52 422.9 288.43C422.443 287.34 422.138 285.975 421.986 284.334C421.845 282.682 421.775 280.754 421.775 278.551C421.775 276.441 421.845 274.602 421.986 273.031C422.138 271.449 422.443 270.137 422.9 269.094C423.345 268.051 423.99 267.271 424.833 266.756C425.677 266.24 426.796 265.982 428.191 265.982C429.597 265.982 430.722 266.24 431.566 266.756C432.41 267.271 433.054 268.051 433.499 269.094C433.945 270.137 434.238 271.449 434.378 273.031C434.519 274.602 434.589 276.441 434.589 278.551ZM431.531 278.727C431.531 276.734 431.49 275.094 431.408 273.805C431.326 272.504 431.167 271.467 430.933 270.693C430.687 269.932 430.347 269.398 429.913 269.094C429.48 268.777 428.906 268.619 428.191 268.619C427.464 268.619 426.884 268.777 426.451 269.094C426.017 269.398 425.683 269.932 425.449 270.693C425.203 271.467 425.038 272.504 424.956 273.805C424.874 275.094 424.833 276.734 424.833 278.727C424.833 280.672 424.874 282.301 424.956 283.613C425.05 284.914 425.208 285.969 425.431 286.777C425.665 287.598 425.999 288.184 426.433 288.535C426.878 288.887 427.464 289.062 428.191 289.062C428.906 289.062 429.486 288.887 429.931 288.535C430.388 288.184 430.728 287.598 430.951 286.777C431.185 285.969 431.337 284.914 431.408 283.613C431.49 282.301 431.531 280.672 431.531 278.727ZM458.699 278.551C458.699 280.754 458.629 282.682 458.488 284.334C458.348 285.975 458.049 287.34 457.592 288.43C457.135 289.52 456.485 290.334 455.641 290.873C454.797 291.412 453.684 291.682 452.301 291.682C450.906 291.682 449.787 291.412 448.944 290.873C448.1 290.334 447.455 289.52 447.01 288.43C446.553 287.34 446.248 285.975 446.096 284.334C445.955 282.682 445.885 280.754 445.885 278.551C445.885 276.441 445.955 274.602 446.096 273.031C446.248 271.449 446.553 270.137 447.01 269.094C447.455 268.051 448.1 267.271 448.944 266.756C449.787 266.24 450.906 265.982 452.301 265.982C453.707 265.982 454.832 266.24 455.676 266.756C456.52 267.271 457.164 268.051 457.61 269.094C458.055 270.137 458.348 271.449 458.488 273.031C458.629 274.602 458.699 276.441 458.699 278.551ZM455.641 278.727C455.641 276.734 455.6 275.094 455.518 273.805C455.436 272.504 455.278 271.467 455.043 270.693C454.797 269.932 454.457 269.398 454.024 269.094C453.59 268.777 453.016 268.619 452.301 268.619C451.574 268.619 450.994 268.777 450.561 269.094C450.127 269.398 449.793 269.932 449.559 270.693C449.313 271.467 449.149 272.504 449.067 273.805C448.985 275.094 448.944 276.734 448.944 278.727C448.944 280.672 448.985 282.301 449.067 283.613C449.16 284.914 449.319 285.969 449.541 286.777C449.776 287.598 450.11 288.184 450.543 288.535C450.988 288.887 451.574 289.062 452.301 289.062C453.016 289.062 453.596 288.887 454.041 288.535C454.498 288.184 454.838 287.598 455.061 286.777C455.295 285.969 455.447 284.914 455.518 283.613C455.6 282.301 455.641 280.672 455.641 278.727Z" fill="#33B2B7"/>
<path d="M249.507 244.729V247.436H238.521V244.729H242.88V225.076L238.169 226.957V224.039L242.528 222.229H245.938V244.729H249.507ZM274.267 234.551C274.267 236.754 274.197 238.682 274.056 240.334C273.916 241.975 273.617 243.34 273.16 244.43C272.703 245.52 272.053 246.334 271.209 246.873C270.365 247.412 269.252 247.682 267.869 247.682C266.474 247.682 265.355 247.412 264.512 246.873C263.668 246.334 263.023 245.52 262.578 244.43C262.121 243.34 261.816 241.975 261.664 240.334C261.523 238.682 261.453 236.754 261.453 234.551C261.453 232.441 261.523 230.602 261.664 229.031C261.816 227.449 262.121 226.137 262.578 225.094C263.023 224.051 263.668 223.271 264.512 222.756C265.355 222.24 266.474 221.982 267.869 221.982C269.275 221.982 270.4 222.24 271.244 222.756C272.088 223.271 272.732 224.051 273.178 225.094C273.623 226.137 273.916 227.449 274.056 229.031C274.197 230.602 274.267 232.441 274.267 234.551ZM271.209 234.727C271.209 232.734 271.168 231.094 271.086 229.805C271.004 228.504 270.846 227.467 270.611 226.693C270.365 225.932 270.025 225.398 269.592 225.094C269.158 224.777 268.584 224.619 267.869 224.619C267.142 224.619 266.562 224.777 266.129 225.094C265.695 225.398 265.361 225.932 265.127 226.693C264.881 227.467 264.717 228.504 264.635 229.805C264.553 231.094 264.512 232.734 264.512 234.727C264.512 236.672 264.553 238.301 264.635 239.613C264.728 240.914 264.887 241.969 265.109 242.777C265.344 243.598 265.678 244.184 266.111 244.535C266.556 244.887 267.142 245.062 267.869 245.062C268.584 245.062 269.164 244.887 269.609 244.535C270.066 244.184 270.406 243.598 270.629 242.777C270.863 241.969 271.015 240.914 271.086 239.613C271.168 238.301 271.209 236.672 271.209 234.727ZM297.727 244.729V247.436H286.741V244.729H291.1V225.076L286.389 226.957V224.039L290.749 222.229H294.159V244.729H297.727ZM322.488 234.551C322.488 236.754 322.417 238.682 322.277 240.334C322.136 241.975 321.837 243.34 321.38 244.43C320.923 245.52 320.273 246.334 319.429 246.873C318.585 247.412 317.472 247.682 316.089 247.682C314.695 247.682 313.576 247.412 312.732 246.873C311.888 246.334 311.244 245.52 310.798 244.43C310.341 243.34 310.037 241.975 309.884 240.334C309.744 238.682 309.673 236.754 309.673 234.551C309.673 232.441 309.744 230.602 309.884 229.031C310.037 227.449 310.341 226.137 310.798 225.094C311.244 224.051 311.888 223.271 312.732 222.756C313.576 222.24 314.695 221.982 316.089 221.982C317.496 221.982 318.621 222.24 319.464 222.756C320.308 223.271 320.953 224.051 321.398 225.094C321.843 226.137 322.136 227.449 322.277 229.031C322.417 230.602 322.488 232.441 322.488 234.551ZM319.429 234.727C319.429 232.734 319.388 231.094 319.306 229.805C319.224 228.504 319.066 227.467 318.831 226.693C318.585 225.932 318.246 225.398 317.812 225.094C317.378 224.777 316.804 224.619 316.089 224.619C315.363 224.619 314.783 224.777 314.349 225.094C313.915 225.398 313.581 225.932 313.347 226.693C313.101 227.467 312.937 228.504 312.855 229.805C312.773 231.094 312.732 232.734 312.732 234.727C312.732 236.672 312.773 238.301 312.855 239.613C312.949 240.914 313.107 241.969 313.329 242.777C313.564 243.598 313.898 244.184 314.331 244.535C314.777 244.887 315.363 245.062 316.089 245.062C316.804 245.062 317.384 244.887 317.829 244.535C318.287 244.184 318.626 243.598 318.849 242.777C319.083 241.969 319.236 240.914 319.306 239.613C319.388 238.301 319.429 236.672 319.429 234.727ZM345.947 244.729V247.436H334.961V244.729H339.321V225.076L334.61 226.957V224.039L338.969 222.229H342.379V244.729H345.947ZM370.708 234.551C370.708 236.754 370.638 238.682 370.497 240.334C370.356 241.975 370.058 243.34 369.601 244.43C369.144 245.52 368.493 246.334 367.649 246.873C366.806 247.412 365.692 247.682 364.31 247.682C362.915 247.682 361.796 247.412 360.952 246.873C360.108 246.334 359.464 245.52 359.019 244.43C358.562 243.34 358.257 241.975 358.104 240.334C357.964 238.682 357.894 236.754 357.894 234.551C357.894 232.441 357.964 230.602 358.104 229.031C358.257 227.449 358.562 226.137 359.019 225.094C359.464 224.051 360.108 223.271 360.952 222.756C361.796 222.24 362.915 221.982 364.31 221.982C365.716 221.982 366.841 222.24 367.685 222.756C368.528 223.271 369.173 224.051 369.618 225.094C370.063 226.137 370.356 227.449 370.497 229.031C370.638 230.602 370.708 232.441 370.708 234.551ZM367.649 234.727C367.649 232.734 367.608 231.094 367.526 229.805C367.444 228.504 367.286 227.467 367.052 226.693C366.806 225.932 366.466 225.398 366.032 225.094C365.599 224.777 365.024 224.619 364.31 224.619C363.583 224.619 363.003 224.777 362.569 225.094C362.136 225.398 361.802 225.932 361.567 226.693C361.321 227.467 361.157 228.504 361.075 229.805C360.993 231.094 360.952 232.734 360.952 234.727C360.952 236.672 360.993 238.301 361.075 239.613C361.169 240.914 361.327 241.969 361.55 242.777C361.784 243.598 362.118 244.184 362.552 244.535C362.997 244.887 363.583 245.062 364.31 245.062C365.024 245.062 365.604 244.887 366.05 244.535C366.507 244.184 366.847 243.598 367.069 242.777C367.304 241.969 367.456 240.914 367.526 239.613C367.608 238.301 367.649 236.672 367.649 234.727ZM394.818 234.551C394.818 236.754 394.748 238.682 394.607 240.334C394.467 241.975 394.168 243.34 393.711 244.43C393.254 245.52 392.603 246.334 391.76 246.873C390.916 247.412 389.803 247.682 388.42 247.682C387.025 247.682 385.906 247.412 385.062 246.873C384.219 246.334 383.574 245.52 383.129 244.43C382.672 243.34 382.367 241.975 382.215 240.334C382.074 238.682 382.004 236.754 382.004 234.551C382.004 232.441 382.074 230.602 382.215 229.031C382.367 227.449 382.672 226.137 383.129 225.094C383.574 224.051 384.219 223.271 385.062 222.756C385.906 222.24 387.025 221.982 388.42 221.982C389.826 221.982 390.951 222.24 391.795 222.756C392.638 223.271 393.283 224.051 393.728 225.094C394.174 226.137 394.467 227.449 394.607 229.031C394.748 230.602 394.818 232.441 394.818 234.551ZM391.76 234.727C391.76 232.734 391.719 231.094 391.637 229.805C391.554 228.504 391.396 227.467 391.162 226.693C390.916 225.932 390.576 225.398 390.142 225.094C389.709 224.777 389.135 224.619 388.42 224.619C387.693 224.619 387.113 224.777 386.679 225.094C386.246 225.398 385.912 225.932 385.678 226.693C385.431 227.467 385.267 228.504 385.185 229.805C385.103 231.094 385.062 232.734 385.062 234.727C385.062 236.672 385.103 238.301 385.185 239.613C385.279 240.914 385.437 241.969 385.66 242.777C385.894 243.598 386.228 244.184 386.662 244.535C387.107 244.887 387.693 245.062 388.42 245.062C389.135 245.062 389.715 244.887 390.16 244.535C390.617 244.184 390.957 243.598 391.179 242.777C391.414 241.969 391.566 240.914 391.637 239.613C391.719 238.301 391.76 236.672 391.76 234.727Z" fill="#33B2B7"/>
<path d="M89.5068 244.729V247.436H78.5205V244.729H82.8799V225.076L78.1689 226.957V224.039L82.5283 222.229H85.9385V244.729H89.5068ZM114.267 234.551C114.267 236.754 114.197 238.682 114.056 240.334C113.916 241.975 113.617 243.34 113.16 244.43C112.703 245.52 112.053 246.334 111.209 246.873C110.365 247.412 109.252 247.682 107.869 247.682C106.474 247.682 105.355 247.412 104.512 246.873C103.668 246.334 103.023 245.52 102.578 244.43C102.121 243.34 101.816 241.975 101.664 240.334C101.523 238.682 101.453 236.754 101.453 234.551C101.453 232.441 101.523 230.602 101.664 229.031C101.816 227.449 102.121 226.137 102.578 225.094C103.023 224.051 103.668 223.271 104.512 222.756C105.355 222.24 106.474 221.982 107.869 221.982C109.275 221.982 110.4 222.24 111.244 222.756C112.088 223.271 112.732 224.051 113.178 225.094C113.623 226.137 113.916 227.449 114.056 229.031C114.197 230.602 114.267 232.441 114.267 234.551ZM111.209 234.727C111.209 232.734 111.168 231.094 111.086 229.805C111.004 228.504 110.846 227.467 110.611 226.693C110.365 225.932 110.025 225.398 109.592 225.094C109.158 224.777 108.584 224.619 107.869 224.619C107.142 224.619 106.562 224.777 106.129 225.094C105.695 225.398 105.361 225.932 105.127 226.693C104.881 227.467 104.717 228.504 104.635 229.805C104.553 231.094 104.512 232.734 104.512 234.727C104.512 236.672 104.553 238.301 104.635 239.613C104.728 240.914 104.887 241.969 105.109 242.777C105.344 243.598 105.678 244.184 106.111 244.535C106.556 244.887 107.142 245.062 107.869 245.062C108.584 245.062 109.164 244.887 109.609 244.535C110.066 244.184 110.406 243.598 110.629 242.777C110.863 241.969 111.015 240.914 111.086 239.613C111.168 238.301 111.209 236.672 111.209 234.727ZM137.727 244.729V247.436H126.741V244.729H131.1V225.076L126.389 226.957V224.039L130.749 222.229H134.159V244.729H137.727ZM162.488 234.551C162.488 236.754 162.417 238.682 162.277 240.334C162.136 241.975 161.837 243.34 161.38 244.43C160.923 245.52 160.273 246.334 159.429 246.873C158.585 247.412 157.472 247.682 156.089 247.682C154.695 247.682 153.576 247.412 152.732 246.873C151.888 246.334 151.244 245.52 150.798 244.43C150.341 243.34 150.037 241.975 149.884 240.334C149.744 238.682 149.673 236.754 149.673 234.551C149.673 232.441 149.744 230.602 149.884 229.031C150.037 227.449 150.341 226.137 150.798 225.094C151.244 224.051 151.888 223.271 152.732 222.756C153.576 222.24 154.695 221.982 156.089 221.982C157.496 221.982 158.621 222.24 159.464 222.756C160.308 223.271 160.953 224.051 161.398 225.094C161.843 226.137 162.136 227.449 162.277 229.031C162.417 230.602 162.488 232.441 162.488 234.551ZM159.429 234.727C159.429 232.734 159.388 231.094 159.306 229.805C159.224 228.504 159.066 227.467 158.831 226.693C158.585 225.932 158.246 225.398 157.812 225.094C157.378 224.777 156.804 224.619 156.089 224.619C155.363 224.619 154.783 224.777 154.349 225.094C153.915 225.398 153.581 225.932 153.347 226.693C153.101 227.467 152.937 228.504 152.855 229.805C152.773 231.094 152.732 232.734 152.732 234.727C152.732 236.672 152.773 238.301 152.855 239.613C152.949 240.914 153.107 241.969 153.329 242.777C153.564 243.598 153.898 244.184 154.331 244.535C154.777 244.887 155.363 245.062 156.089 245.062C156.804 245.062 157.384 244.887 157.829 244.535C158.287 244.184 158.626 243.598 158.849 242.777C159.083 241.969 159.236 240.914 159.306 239.613C159.388 238.301 159.429 236.672 159.429 234.727Z" fill="#33B2B7"/>
<path d="M91.5068 200.729V203.436H80.5205V200.729H84.8799V181.076L80.1689 182.957V180.039L84.5283 178.229H87.9385V200.729H91.5068ZM116.267 190.551C116.267 192.754 116.197 194.682 116.056 196.334C115.916 197.975 115.617 199.34 115.16 200.43C114.703 201.52 114.053 202.334 113.209 202.873C112.365 203.412 111.252 203.682 109.869 203.682C108.474 203.682 107.355 203.412 106.512 202.873C105.668 202.334 105.023 201.52 104.578 200.43C104.121 199.34 103.816 197.975 103.664 196.334C103.523 194.682 103.453 192.754 103.453 190.551C103.453 188.441 103.523 186.602 103.664 185.031C103.816 183.449 104.121 182.137 104.578 181.094C105.023 180.051 105.668 179.271 106.512 178.756C107.355 178.24 108.474 177.982 109.869 177.982C111.275 177.982 112.4 178.24 113.244 178.756C114.088 179.271 114.732 180.051 115.178 181.094C115.623 182.137 115.916 183.449 116.056 185.031C116.197 186.602 116.267 188.441 116.267 190.551ZM113.209 190.727C113.209 188.734 113.168 187.094 113.086 185.805C113.004 184.504 112.846 183.467 112.611 182.693C112.365 181.932 112.025 181.398 111.592 181.094C111.158 180.777 110.584 180.619 109.869 180.619C109.142 180.619 108.562 180.777 108.129 181.094C107.695 181.398 107.361 181.932 107.127 182.693C106.881 183.467 106.717 184.504 106.635 185.805C106.553 187.094 106.512 188.734 106.512 190.727C106.512 192.672 106.553 194.301 106.635 195.613C106.728 196.914 106.887 197.969 107.109 198.777C107.344 199.598 107.678 200.184 108.111 200.535C108.556 200.887 109.142 201.062 109.869 201.062C110.584 201.062 111.164 200.887 111.609 200.535C112.066 200.184 112.406 199.598 112.629 198.777C112.863 197.969 113.015 196.914 113.086 195.613C113.168 194.301 113.209 192.672 113.209 190.727ZM139.727 200.729V203.436H128.741V200.729H133.1V181.076L128.389 182.957V180.039L132.749 178.229H136.159V200.729H139.727Z" fill="#33B2B7"/>
<path d="M203.157 366.551C203.157 368.754 203.087 370.682 202.946 372.334C202.806 373.975 202.507 375.34 202.05 376.43C201.593 377.52 200.942 378.334 200.099 378.873C199.255 379.412 198.142 379.682 196.759 379.682C195.364 379.682 194.245 379.412 193.401 378.873C192.558 378.334 191.913 377.52 191.468 376.43C191.011 375.34 190.706 373.975 190.554 372.334C190.413 370.682 190.343 368.754 190.343 366.551C190.343 364.441 190.413 362.602 190.554 361.031C190.706 359.449 191.011 358.137 191.468 357.094C191.913 356.051 192.558 355.271 193.401 354.756C194.245 354.24 195.364 353.982 196.759 353.982C198.165 353.982 199.29 354.24 200.134 354.756C200.978 355.271 201.622 356.051 202.067 357.094C202.513 358.137 202.806 359.449 202.946 361.031C203.087 362.602 203.157 364.441 203.157 366.551ZM200.099 366.727C200.099 364.734 200.058 363.094 199.976 361.805C199.894 360.504 199.735 359.467 199.501 358.693C199.255 357.932 198.915 357.398 198.481 357.094C198.048 356.777 197.474 356.619 196.759 356.619C196.032 356.619 195.452 356.777 195.019 357.094C194.585 357.398 194.251 357.932 194.017 358.693C193.771 359.467 193.606 360.504 193.524 361.805C193.442 363.094 193.401 364.734 193.401 366.727C193.401 368.672 193.442 370.301 193.524 371.613C193.618 372.914 193.776 373.969 193.999 374.777C194.233 375.598 194.567 376.184 195.001 376.535C195.446 376.887 196.032 377.062 196.759 377.062C197.474 377.062 198.054 376.887 198.499 376.535C198.956 376.184 199.296 375.598 199.519 374.777C199.753 373.969 199.905 372.914 199.976 371.613C200.058 370.301 200.099 368.672 200.099 366.727ZM226.617 376.729V379.436H215.631V376.729H219.99V357.076L215.279 358.957V356.039L219.638 354.229H223.049V376.729H226.617ZM251.378 366.551C251.378 368.754 251.307 370.682 251.167 372.334C251.026 373.975 250.727 375.34 250.27 376.43C249.813 377.52 249.163 378.334 248.319 378.873C247.475 379.412 246.362 379.682 244.979 379.682C243.585 379.682 242.465 379.412 241.622 378.873C240.778 378.334 240.133 377.52 239.688 376.43C239.231 375.34 238.926 373.975 238.774 372.334C238.633 370.682 238.563 368.754 238.563 366.551C238.563 364.441 238.633 362.602 238.774 361.031C238.926 359.449 239.231 358.137 239.688 357.094C240.133 356.051 240.778 355.271 241.622 354.756C242.465 354.24 243.585 353.982 244.979 353.982C246.385 353.982 247.51 354.24 248.354 354.756C249.198 355.271 249.842 356.051 250.288 357.094C250.733 358.137 251.026 359.449 251.167 361.031C251.307 362.602 251.378 364.441 251.378 366.551ZM248.319 366.727C248.319 364.734 248.278 363.094 248.196 361.805C248.114 360.504 247.956 359.467 247.721 358.693C247.475 357.932 247.135 357.398 246.702 357.094C246.268 356.777 245.694 356.619 244.979 356.619C244.253 356.619 243.672 356.777 243.239 357.094C242.805 357.398 242.471 357.932 242.237 358.693C241.991 359.467 241.827 360.504 241.745 361.805C241.663 363.094 241.622 364.734 241.622 366.727C241.622 368.672 241.663 370.301 241.745 371.613C241.838 372.914 241.997 373.969 242.219 374.777C242.454 375.598 242.788 376.184 243.221 376.535C243.667 376.887 244.253 377.062 244.979 377.062C245.694 377.062 246.274 376.887 246.719 376.535C247.176 376.184 247.516 375.598 247.739 374.777C247.973 373.969 248.126 372.914 248.196 371.613C248.278 370.301 248.319 368.672 248.319 366.727ZM275.488 366.551C275.488 368.754 275.417 370.682 275.277 372.334C275.136 373.975 274.837 375.34 274.38 376.43C273.923 377.52 273.273 378.334 272.429 378.873C271.585 379.412 270.472 379.682 269.089 379.682C267.695 379.682 266.576 379.412 265.732 378.873C264.888 378.334 264.244 377.52 263.798 376.43C263.341 375.34 263.037 373.975 262.884 372.334C262.744 370.682 262.673 368.754 262.673 366.551C262.673 364.441 262.744 362.602 262.884 361.031C263.037 359.449 263.341 358.137 263.798 357.094C264.244 356.051 264.888 355.271 265.732 354.756C266.576 354.24 267.695 353.982 269.089 353.982C270.496 353.982 271.621 354.24 272.464 354.756C273.308 355.271 273.953 356.051 274.398 357.094C274.843 358.137 275.136 359.449 275.277 361.031C275.417 362.602 275.488 364.441 275.488 366.551ZM272.429 366.727C272.429 364.734 272.388 363.094 272.306 361.805C272.224 360.504 272.066 359.467 271.831 358.693C271.585 357.932 271.246 357.398 270.812 357.094C270.378 356.777 269.804 356.619 269.089 356.619C268.363 356.619 267.783 356.777 267.349 357.094C266.915 357.398 266.581 357.932 266.347 358.693C266.101 359.467 265.937 360.504 265.855 361.805C265.773 363.094 265.732 364.734 265.732 366.727C265.732 368.672 265.773 370.301 265.855 371.613C265.949 372.914 266.107 373.969 266.329 374.777C266.564 375.598 266.898 376.184 267.331 376.535C267.777 376.887 268.363 377.062 269.089 377.062C269.804 377.062 270.384 376.887 270.829 376.535C271.287 376.184 271.626 375.598 271.849 374.777C272.083 373.969 272.236 372.914 272.306 371.613C272.388 370.301 272.429 368.672 272.429 366.727ZM298.947 376.729V379.436H287.961V376.729H292.321V357.076L287.61 358.957V356.039L291.969 354.229H295.379V376.729H298.947ZM323.058 376.729V379.436H312.071V376.729H316.431V357.076L311.72 358.957V356.039L316.079 354.229H319.489V376.729H323.058ZM347.818 366.551C347.818 368.754 347.748 370.682 347.607 372.334C347.467 373.975 347.168 375.34 346.711 376.43C346.254 377.52 345.603 378.334 344.76 378.873C343.916 379.412 342.803 379.682 341.42 379.682C340.025 379.682 338.906 379.412 338.062 378.873C337.219 378.334 336.574 377.52 336.129 376.43C335.672 375.34 335.367 373.975 335.215 372.334C335.074 370.682 335.004 368.754 335.004 366.551C335.004 364.441 335.074 362.602 335.215 361.031C335.367 359.449 335.672 358.137 336.129 357.094C336.574 356.051 337.219 355.271 338.062 354.756C338.906 354.24 340.025 353.982 341.42 353.982C342.826 353.982 343.951 354.24 344.795 354.756C345.638 355.271 346.283 356.051 346.728 357.094C347.174 358.137 347.467 359.449 347.607 361.031C347.748 362.602 347.818 364.441 347.818 366.551ZM344.76 366.727C344.76 364.734 344.719 363.094 344.637 361.805C344.554 360.504 344.396 359.467 344.162 358.693C343.916 357.932 343.576 357.398 343.142 357.094C342.709 356.777 342.135 356.619 341.42 356.619C340.693 356.619 340.113 356.777 339.679 357.094C339.246 357.398 338.912 357.932 338.678 358.693C338.431 359.467 338.267 360.504 338.185 361.805C338.103 363.094 338.062 364.734 338.062 366.727C338.062 368.672 338.103 370.301 338.185 371.613C338.279 372.914 338.437 373.969 338.66 374.777C338.894 375.598 339.228 376.184 339.662 376.535C340.107 376.887 340.693 377.062 341.42 377.062C342.135 377.062 342.715 376.887 343.16 376.535C343.617 376.184 343.957 375.598 344.179 374.777C344.414 373.969 344.566 372.914 344.637 371.613C344.719 370.301 344.76 368.672 344.76 366.727ZM371.928 366.551C371.928 368.754 371.858 370.682 371.717 372.334C371.577 373.975 371.278 375.34 370.821 376.43C370.364 377.52 369.713 378.334 368.87 378.873C368.026 379.412 366.913 379.682 365.53 379.682C364.135 379.682 363.016 379.412 362.172 378.873C361.329 378.334 360.684 377.52 360.239 376.43C359.782 375.34 359.477 373.975 359.325 372.334C359.184 370.682 359.114 368.754 359.114 366.551C359.114 364.441 359.184 362.602 359.325 361.031C359.477 359.449 359.782 358.137 360.239 357.094C360.684 356.051 361.329 355.271 362.172 354.756C363.016 354.24 364.135 353.982 365.53 353.982C366.936 353.982 368.061 354.24 368.905 354.756C369.749 355.271 370.393 356.051 370.838 357.094C371.284 358.137 371.577 359.449 371.717 361.031C371.858 362.602 371.928 364.441 371.928 366.551ZM368.87 366.727C368.87 364.734 368.829 363.094 368.747 361.805C368.665 360.504 368.506 359.467 368.272 358.693C368.026 357.932 367.686 357.398 367.253 357.094C366.819 356.777 366.245 356.619 365.53 356.619C364.803 356.619 364.223 356.777 363.79 357.094C363.356 357.398 363.022 357.932 362.788 358.693C362.542 359.467 362.378 360.504 362.296 361.805C362.213 363.094 362.172 364.734 362.172 366.727C362.172 368.672 362.213 370.301 362.296 371.613C362.389 372.914 362.547 373.969 362.77 374.777C363.004 375.598 363.338 376.184 363.772 376.535C364.217 376.887 364.803 377.062 365.53 377.062C366.245 377.062 366.825 376.887 367.27 376.535C367.727 376.184 368.067 375.598 368.29 374.777C368.524 373.969 368.676 372.914 368.747 371.613C368.829 370.301 368.87 368.672 368.87 366.727ZM395.388 376.729V379.436H384.402V376.729H388.761V357.076L384.05 358.957V356.039L388.41 354.229H391.82V376.729H395.388ZM419.498 376.729V379.436H408.512V376.729H412.871V357.076L408.16 358.957V356.039L412.52 354.229H415.93V376.729H419.498ZM443.608 376.729V379.436H432.622V376.729H436.981V357.076L432.271 358.957V356.039L436.63 354.229H440.04V376.729H443.608ZM467.719 376.729V379.436H456.732V376.729H461.092V357.076L456.381 358.957V356.039L460.74 354.229H464.15V376.729H467.719ZM492.479 366.551C492.479 368.754 492.409 370.682 492.268 372.334C492.128 373.975 491.829 375.34 491.372 376.43C490.915 377.52 490.264 378.334 489.421 378.873C488.577 379.412 487.463 379.682 486.081 379.682C484.686 379.682 483.567 379.412 482.723 378.873C481.879 378.334 481.235 377.52 480.79 376.43C480.333 375.34 480.028 373.975 479.876 372.334C479.735 370.682 479.665 368.754 479.665 366.551C479.665 364.441 479.735 362.602 479.876 361.031C480.028 359.449 480.333 358.137 480.79 357.094C481.235 356.051 481.879 355.271 482.723 354.756C483.567 354.24 484.686 353.982 486.081 353.982C487.487 353.982 488.612 354.24 489.456 354.756C490.299 355.271 490.944 356.051 491.389 357.094C491.835 358.137 492.128 359.449 492.268 361.031C492.409 362.602 492.479 364.441 492.479 366.551ZM489.421 366.727C489.421 364.734 489.379 363.094 489.297 361.805C489.215 360.504 489.057 359.467 488.823 358.693C488.577 357.932 488.237 357.398 487.803 357.094C487.37 356.777 486.796 356.619 486.081 356.619C485.354 356.619 484.774 356.777 484.34 357.094C483.907 357.398 483.573 357.932 483.338 358.693C483.092 359.467 482.928 360.504 482.846 361.805C482.764 363.094 482.723 364.734 482.723 366.727C482.723 368.672 482.764 370.301 482.846 371.613C482.94 372.914 483.098 373.969 483.321 374.777C483.555 375.598 483.889 376.184 484.323 376.535C484.768 376.887 485.354 377.062 486.081 377.062C486.796 377.062 487.376 376.887 487.821 376.535C488.278 376.184 488.618 375.598 488.84 374.777C489.075 373.969 489.227 372.914 489.297 371.613C489.379 370.301 489.421 368.672 489.421 366.727ZM533.141 366.551C533.141 368.754 533.07 370.682 532.93 372.334C532.789 373.975 532.49 375.34 532.033 376.43C531.576 377.52 530.926 378.334 530.082 378.873C529.238 379.412 528.125 379.682 526.742 379.682C525.348 379.682 524.229 379.412 523.385 378.873C522.541 378.334 521.897 377.52 521.451 376.43C520.994 375.34 520.69 373.975 520.537 372.334C520.397 370.682 520.326 368.754 520.326 366.551C520.326 364.441 520.397 362.602 520.537 361.031C520.69 359.449 520.994 358.137 521.451 357.094C521.897 356.051 522.541 355.271 523.385 354.756C524.229 354.24 525.348 353.982 526.742 353.982C528.149 353.982 529.274 354.24 530.117 354.756C530.961 355.271 531.606 356.051 532.051 357.094C532.496 358.137 532.789 359.449 532.93 361.031C533.07 362.602 533.141 364.441 533.141 366.551ZM530.082 366.727C530.082 364.734 530.041 363.094 529.959 361.805C529.877 360.504 529.719 359.467 529.485 358.693C529.238 357.932 528.899 357.398 528.465 357.094C528.031 356.777 527.457 356.619 526.742 356.619C526.016 356.619 525.436 356.777 525.002 357.094C524.569 357.398 524.235 357.932 524 358.693C523.754 359.467 523.59 360.504 523.508 361.805C523.426 363.094 523.385 364.734 523.385 366.727C523.385 368.672 523.426 370.301 523.508 371.613C523.602 372.914 523.76 373.969 523.983 374.777C524.217 375.598 524.551 376.184 524.985 376.535C525.43 376.887 526.016 377.062 526.742 377.062C527.457 377.062 528.037 376.887 528.483 376.535C528.94 376.184 529.279 375.598 529.502 374.777C529.737 373.969 529.889 372.914 529.959 371.613C530.041 370.301 530.082 368.672 530.082 366.727Z" fill="#33B2B7"/>
<circle cx="66.3037" cy="19.4355" r="6" fill="#0381CA"/>
<rect x="548.304" y="338.436" width="18" height="10" fill="white"/>
<rect x="732.304" y="444.436" width="30" height="10" fill="white"/>
<rect x="820.304" y="390.436" width="10" height="10" fill="white"/>
<rect x="798.304" y="434.436" width="10" height="10" fill="white"/>
<rect x="808.304" y="424.436" width="10" height="10" fill="white"/>
<rect x="749.304" y="454.436" width="26" height="10" fill="white"/>
<rect x="769.304" y="429.436" width="12" height="10" fill="white"/>
<rect x="737.304" y="477.436" width="20" height="10" fill="white"/>
<rect x="778.304" y="449.436" width="30" height="10" fill="white"/>
<rect x="674.304" y="439.436" width="22" height="10" fill="white"/>
<rect x="628.304" y="414.436" width="16" height="10" fill="white"/>
<rect x="566.304" y="367.436" width="12" height="10" fill="white"/>
<rect x="578.304" y="395.436" width="22" height="10" fill="white"/>
<rect x="598.304" y="444.436" width="30" height="10" fill="white"/>
<rect x="652.304" y="459.436" width="22" height="10" fill="white"/>
<rect x="685.304" y="464.436" width="10" height="10" fill="white"/>
<rect x="685.304" y="477.436" width="26" height="10" fill="white"/>
<rect x="706.304" y="459.436" width="22" height="10" fill="white"/>
<rect x="459.304" y="432.436" width="16" height="10" fill="white"/>
<rect x="475.304" y="469.436" width="22" height="10" fill="white"/>
<rect x="486.304" y="306.436" width="26" height="10" fill="white"/>
<rect x="509.304" y="357.436" width="12" height="10" fill="white"/>
<rect x="447.304" y="369.436" width="12" height="10" fill="white"/>
<rect x="474.304" y="372.436" width="12" height="10" fill="white"/>
<rect x="512.304" y="414.436" width="22" height="10" fill="white"/>
<rect x="68.3037" y="239.436" width="12" height="10" fill="white"/>
<rect x="793.304" y="409.436" width="20" height="10" fill="white"/>
<rect x="480.304" y="400.436" width="16" height="10" fill="white"/>
<defs>
<linearGradient id="paint0_linear_27_18" x1="415" y1="0" x2="415" y2="508" gradientUnits="userSpaceOnUse">
<stop stop-color="#33B2B7"/>
<stop offset="1" stop-color="#3079CA"/>
</linearGradient>
</defs>
</svg>
