<svg width="830" height="508" viewBox="0 0 830 508" fill="none" xmlns="http://www.w3.org/2000/svg">
<path d="M102.163 7.75281C123.971 22.7977 135.827 46.7354 140.761 72.333C143.668 89.4652 142.357 106.758 141.421 124.009C140.669 137.892 140.052 151.753 139.983 165.659C139.974 167.258 139.961 168.856 139.942 170.454C139.745 188.711 141.953 208.876 155.28 222.572C163.062 229.688 170.834 232.121 181.213 231.953C182.136 231.943 183.059 231.933 184.01 231.922C192.677 231.729 200.844 230.541 209.272 228.576C210.055 228.399 210.838 228.221 211.645 228.038C226.612 224.579 241.156 219.806 255.693 214.882C272.53 209.223 287.997 205.89 305.833 206.096C308.557 206.125 311.279 206.116 314.004 206.103C331.774 206.121 348.898 208.159 365.81 213.754C367.044 214.152 368.278 214.549 369.549 214.959C394.962 223.275 419.569 234.066 441.832 248.981C444.428 250.718 447.039 252.431 449.653 254.143C473.193 269.62 493.642 287.512 514.119 306.773C516.838 309.329 519.564 311.877 522.298 314.418C528.116 319.828 533.894 325.243 539.463 330.912C541.967 333.374 544.626 335.64 547.286 337.928C549.174 339.604 550.951 341.345 552.719 343.146C555.661 346.137 558.741 348.897 561.917 351.636C564.725 354.098 567.471 356.625 570.216 359.156C574.148 362.78 578.117 366.35 582.156 369.854C584.703 372.094 587.208 374.38 589.713 376.667C593.483 380.108 597.285 383.502 601.141 386.845C603.578 388.999 605.951 391.215 608.335 393.427C613.64 398.272 619.195 402.712 624.883 407.096C627.651 409.232 630.301 411.479 632.956 413.752C640.042 419.434 648.172 423.53 656.203 427.698C656.844 428.033 657.485 428.367 658.145 428.712C673.853 436.787 690.743 442.135 708.195 444.709C709.271 444.893 710.347 445.078 711.456 445.268C740.104 448.653 768.917 443.297 792.557 426.385C801.978 418.927 809.268 410.113 815.178 399.681C815.702 398.758 816.225 397.834 816.764 396.883C821.058 388.812 823.669 380.414 826.177 371.664C828.176 372.665 828.176 372.665 828.786 374.395C831.147 388.155 830.126 403.674 825.177 416.692C824.93 417.35 824.684 418.008 824.429 418.687C820.876 427.989 816.544 435.978 810.179 443.708C809.588 444.463 808.996 445.217 808.386 445.995C787.616 471.124 753.296 482.175 721.92 485.168C664.654 489.994 609.14 469.848 560.068 441.735C540.38 430.47 520.252 420.811 499.368 412.028C495.878 410.539 492.43 408.971 488.998 407.352C487.076 406.509 487.076 406.509 484.229 406.686C478.798 416.028 478.56 425.688 481.018 436.011C483.132 443.715 485.566 451.317 488.014 458.92C498.911 493.008 498.911 493.008 495.442 503.006C494.228 504.746 494.228 504.746 492.529 505.347C489.716 505.835 487.048 505.874 484.191 505.876C482.974 505.879 481.756 505.882 480.502 505.885C479.192 505.883 477.881 505.881 476.531 505.879C475.172 505.88 473.813 505.881 472.453 505.882C469.61 505.884 466.767 505.882 463.924 505.877C460.272 505.871 456.621 505.874 452.969 505.88C450.165 505.884 447.362 505.883 444.558 505.88C442.554 505.879 440.551 505.882 438.547 505.885C437.339 505.882 436.131 505.879 434.887 505.876C433.817 505.875 432.748 505.874 431.647 505.873C429.238 505.746 429.238 505.746 428.238 504.746C427.618 501.83 427.435 500.553 428.238 497.741C430.316 495.023 432.603 492.618 434.967 490.147C438.84 486.032 441.38 482.257 441.861 476.478C441.349 466.414 433.443 458.03 427.238 450.713C426.342 449.608 425.447 448.503 424.551 447.398C421.522 443.875 418.237 440.66 414.881 437.451C408.602 431.383 403.03 425.006 398.243 417.692C398.243 417.032 398.243 416.371 398.243 415.691C397.458 415.955 396.673 416.218 395.865 416.49C387.95 419.051 380.228 420.741 371.997 421.882C370.367 422.129 370.367 422.129 368.704 422.381C353.816 424.528 338.888 424.883 323.87 424.882C321.322 424.884 318.774 424.902 316.226 424.921C303.957 424.963 291.197 424.84 279.261 421.695C279.368 430.106 279.481 438.517 279.6 446.928C279.655 450.833 279.709 454.739 279.758 458.645C279.806 462.414 279.858 466.184 279.914 469.953C279.934 471.391 279.953 472.829 279.97 474.266C279.994 476.281 280.025 478.295 280.055 480.31C280.071 481.456 280.087 482.603 280.103 483.784C280.237 486.292 280.586 488.339 281.261 490.737C281.376 492.59 281.435 494.447 281.448 496.303C281.462 497.254 281.476 498.204 281.491 499.184C281.261 501.744 281.261 501.744 279.261 504.746C276.781 505.107 276.781 505.107 273.619 505.087C272.438 505.086 271.257 505.086 270.04 505.086C268.12 505.063 268.12 505.063 266.161 505.039C264.202 505.033 264.202 505.033 262.202 505.026C258.727 505.015 255.252 504.985 251.778 504.952C248.232 504.921 244.687 504.907 241.142 504.892C234.184 504.86 227.227 504.809 220.27 504.746C221.1 497.28 221.1 497.28 223.449 494.02C223.883 493.397 224.318 492.774 224.765 492.133C225.22 491.507 225.675 490.881 226.144 490.237C232.637 481.155 235.498 474.158 234.268 462.72C231.208 445.884 223.667 430.283 215.065 415.64C212.271 410.874 212.271 410.874 212.271 408.687C192.171 427.874 180.255 461.984 171.014 487.76C168.532 494.563 166.012 500.11 159.654 504.058C158.878 504.549 158.102 505.041 157.303 505.547C154.323 507.314 152.631 507.875 149.186 507.893C147.919 507.903 147.919 507.903 146.627 507.912C145.255 507.914 145.255 507.914 143.856 507.916C142.916 507.919 141.977 507.922 141.009 507.926C139.018 507.931 137.026 507.933 135.035 507.933C131.994 507.935 128.953 507.953 125.911 507.972C123.977 507.975 122.044 507.977 120.11 507.978C119.201 507.985 118.293 507.993 117.357 508C112.89 507.984 109.344 507.868 105.288 505.746C104.696 498.288 105.664 493.685 110.287 487.735C112.371 485.524 114.541 483.408 116.723 481.294C142.901 455.903 142.531 408.162 145.331 373.896C145.388 373.199 145.445 372.502 145.504 371.784C145.658 369.895 145.807 368.005 145.956 366.116C146.286 362.607 146.755 359.139 147.281 355.654C151.437 357.152 155.079 359.214 158.779 361.595C159.687 362.178 159.687 362.178 160.613 362.773C166.258 366.489 171.364 370.731 176.437 375.186C178.997 377.423 181.605 379.566 184.275 381.67C184.275 377.21 181.42 374.967 178.589 371.789C177.996 371.12 177.403 370.451 176.792 369.762C174.964 367.718 173.122 365.688 171.277 363.659C170.77 363.087 170.263 362.516 169.741 361.927C161.477 352.669 151.925 346.054 141.618 339.222C108.581 317.274 89.7229 286.96 81.2913 248.588C80.4222 244.276 79.7778 239.953 79.2917 235.58C79.1657 234.658 79.1657 234.658 79.0373 233.716C74.5533 198.776 80.8539 161.537 88.9152 127.51C92.643 111.637 95.0008 91.0182 86.2906 76.4825C82.7029 70.8599 78.614 67.2301 72.242 65.1045C60.458 62.5897 49.6333 65.0938 38.1078 67.6778C27.7186 69.9501 16.8836 71.9186 7.04106 66.6875C3.45293 64.186 1.66831 61.5675 0.303817 57.4709C-0.474016 50.6874 0.118838 45.5634 3.52598 39.6279C8.74505 33.2569 15.2649 29.6226 22.4879 25.889C31.1152 21.3199 39.3417 16.3741 47.4223 10.8951C65.9948 -1.5929 82.5018 -4.27938 102.163 7.75281Z" fill="url(#paint0_linear_28_19)"/>
<path d="M339.236 489.578C339.535 489.002 339.829 488.813 340.181 488.326C340.531 487.838 340.823 487.648 341.176 487.162C341.529 486.675 341.821 486.484 342.174 485.997C342.884 485.185 343.531 484.667 344.195 483.774C344.885 482.496 345.56 481.594 346.245 480.309C347.485 478.593 349.411 477.498 349.818 475.883C351.229 470.285 352.112 464.507 353.167 458.293C353.138 446.842 353.138 435.895 353.138 425.044C366.267 423.141 378.792 421.326 391.72 419.436C393.621 420.024 395.118 420.688 397.227 421.624C397.227 429.187 397.424 437.077 397.186 444.949C396.651 462.643 395.708 480.323 395.381 498.02C395.307 502.032 393.984 503.615 391.187 505.083C372.46 505.436 353.807 505.436 333.304 505.436C335.016 499.821 336.149 496.106 337.266 491.956C337.91 491.002 338.571 490.484 339.236 489.578Z" fill="#3079CA"/>
<circle cx="66.3037" cy="19.4355" r="6" fill="#0381CA"/>
<defs>
<linearGradient id="paint0_linear_28_19" x1="415" y1="0" x2="415" y2="508" gradientUnits="userSpaceOnUse">
<stop stop-color="#33B2B7"/>
<stop offset="1" stop-color="#3079CA"/>
</linearGradient>
</defs>
</svg>
